<svg version="1.1" viewBox="0.0 0.0 960.0 720.0" fill="none" stroke="none" stroke-linecap="square" stroke-miterlimit="10" xmlns:xlink="http://www.w3.org/1999/xlink" xmlns="http://www.w3.org/2000/svg"><clipPath id="p.0"><path d="m0 0l960.0 0l0 720.0l-960.0 0l0 -720.0z" clip-rule="nonzero"/></clipPath><g clip-path="url(#p.0)"><path fill="#000000" fill-opacity="0.0" d="m0 0l960.0 0l0 720.0l-960.0 0z" fill-rule="evenodd"/><defs><linearGradient id="p.1" gradientUnits="userSpaceOnUse" gradientTransform="matrix(26.672160414333092 0.0 0.0 26.672160414333092 0.0 0.0)" spreadMethod="pad" x1="6.070304541057476" y1="0.322278312037969" x2="6.07020805810474" y2="26.994438726196556"><stop offset="0.0" stop-color="#d53f3f"/><stop offset="1.0" stop-color="#fea746"/></linearGradient></defs><path fill="url(#p.1)" d="m161.90814 364.29922l0 0c0 -196.44814 158.70978 -355.7008 354.48816 -355.7008l0 0c94.01611 0 184.18158 37.47551 250.66101 104.18235c66.47943 66.70683 103.82721 157.18071 103.82721 251.51845l0 0c0 196.44809 -158.70978 355.70078 -354.48822 355.70078l0 0c-195.77838 0 -354.48816 -159.25269 -354.48816 -355.70078z" fill-rule="evenodd"/></g></svg>